<svg width="135" height="152" viewBox="0 0 135 152" fill="none" xmlns="http://www.w3.org/2000/svg">
<path opacity="0.7" d="M135 76C135 91.9417 132.035 105.596 126.105 116.962C120.223 128.28 112.189 136.949 102.003 142.97C91.865 148.99 80.364 152 67.5 152C54.636 152 43.111 148.99 32.9251 142.97C22.7869 136.901 14.7529 128.208 8.82306 116.89C2.94102 105.523 0 91.8935 0 76C0 60.0583 2.94102 46.4284 8.82306 35.1103C14.7529 23.744 22.7869 15.0507 32.9251 9.03041C43.111 3.01014 54.636 0 67.5 0C80.364 0 91.865 3.01014 102.003 9.03041C112.189 15.0507 120.223 23.744 126.105 35.1103C132.035 46.4284 135 60.0583 135 76ZM108.244 76C108.244 64.7782 106.498 55.3143 103.007 47.6084C99.5643 39.8543 94.7821 34.0025 88.661 30.0532C82.5398 26.0558 75.4862 24.057 67.5 24.057C59.5138 24.057 52.4601 26.0558 46.339 30.0532C40.2179 34.0025 35.4118 39.8543 31.9208 47.6084C28.4777 55.3143 26.7561 64.7782 26.7561 76C26.7561 87.2218 28.4777 96.7098 31.9208 104.464C35.4118 112.17 40.2179 118.022 46.339 122.019C52.4601 125.968 59.5138 127.943 67.5 127.943C75.4862 127.943 82.5398 125.968 88.661 122.019C94.7821 118.022 99.5643 112.17 103.007 104.464C106.498 96.7098 108.244 87.2218 108.244 76Z" fill="#4478DE"/>
</svg>
