<svg width="131" height="152" viewBox="0 0 131 152" fill="none" xmlns="http://www.w3.org/2000/svg">
<path opacity="0.7" d="M130.399 51.943H103.38C102.61 47.512 101.189 43.5868 99.1179 40.1673C97.0469 36.6996 94.4702 33.7617 91.3878 31.3536C88.3054 28.9455 84.7896 27.1394 80.8403 25.9354C76.9392 24.6831 72.725 24.057 68.1977 24.057C60.1546 24.057 53.0266 26.0799 46.8137 30.1255C40.6008 34.1229 35.7364 39.9987 32.2205 47.7529C28.7047 55.4588 26.9468 64.8745 26.9468 76C26.9468 87.3181 28.7047 96.8542 32.2205 104.608C35.7845 112.314 40.6489 118.142 46.8137 122.091C53.0266 125.992 60.1305 127.943 68.1255 127.943C72.5564 127.943 76.6984 127.365 80.5513 126.209C84.4525 125.005 87.9442 123.247 91.0266 120.935C94.1572 118.624 96.782 115.782 98.9011 112.411C101.068 109.039 102.561 105.186 103.38 100.852L130.399 100.996C129.388 108.028 127.196 114.626 123.825 120.791C120.502 126.956 116.143 132.398 110.749 137.118C105.355 141.79 99.0456 145.45 91.8213 148.099C84.597 150.7 76.5779 152 67.7643 152C54.7605 152 43.1534 148.99 32.943 142.97C22.7326 136.949 14.6895 128.256 8.81369 116.89C2.9379 105.523 0 91.8935 0 76C0 60.0583 2.96198 46.4284 8.88593 35.1103C14.8099 23.744 22.8771 15.0507 33.0875 9.03041C43.2978 3.01014 54.8568 0 67.7643 0C76 0 83.6578 1.15589 90.7376 3.46768C97.8175 5.77947 104.127 9.17491 109.665 13.654C115.204 18.0849 119.755 23.5273 123.319 29.981C126.932 36.3866 129.292 43.7072 130.399 51.943Z" fill="#4478DE"/>
</svg>
