<svg width="68" height="26" viewBox="0 0 68 26" fill="none" xmlns="http://www.w3.org/2000/svg">
<path d="M33.0554 2.71739C33.3667 1.82183 34.6333 1.82183 34.9446 2.71739L35.6524 4.75386C35.7898 5.14893 36.1585 5.4168 36.5766 5.42532L38.7322 5.46925C39.6801 5.48857 40.0715 6.69311 39.3159 7.26592L37.5979 8.56845C37.2646 8.82114 37.1238 9.25456 37.2449 9.6549L37.8692 11.7185C38.1438 12.626 37.1191 13.3705 36.3409 12.8289L34.5712 11.5975C34.2279 11.3586 33.7721 11.3586 33.4288 11.5975L31.6591 12.8289C30.8809 13.3705 29.8562 12.626 30.1308 11.7185L30.7551 9.6549C30.8762 9.25456 30.7354 8.82114 30.4021 8.56845L28.6841 7.26592C27.9285 6.69311 28.3199 5.48857 29.2678 5.46925L31.4234 5.42532C31.8415 5.4168 32.2102 5.14893 32.3476 4.75386L33.0554 2.71739Z" fill="#002C95"/>
<path d="M46.0554 7.71739C46.3667 6.82183 47.6333 6.82183 47.9446 7.71739L48.6524 9.75386C48.7898 10.1489 49.1585 10.4168 49.5766 10.4253L51.7322 10.4693C52.6801 10.4886 53.0715 11.6931 52.3159 12.2659L50.5979 13.5685C50.2646 13.8211 50.1238 14.2546 50.2449 14.6549L50.8692 16.7185C51.1438 17.626 50.1191 18.3705 49.3409 17.8289L47.5712 16.5975C47.2279 16.3586 46.7721 16.3586 46.4288 16.5975L44.6591 17.8289C43.8809 18.3705 42.8562 17.626 43.1308 16.7185L43.7551 14.6549C43.8762 14.2546 43.7354 13.8211 43.4021 13.5685L41.6841 12.2659C40.9285 11.6931 41.3199 10.4886 42.2678 10.4693L44.4234 10.4253C44.8415 10.4168 45.2102 10.1489 45.3476 9.75386L46.0554 7.71739Z" fill="#002C95"/>
<path d="M59.0554 12.7174C59.3667 11.8218 60.6333 11.8218 60.9446 12.7174L61.6524 14.7539C61.7898 15.1489 62.1585 15.4168 62.5766 15.4253L64.7322 15.4693C65.6801 15.4886 66.0715 16.6931 65.3159 17.2659L63.5979 18.5685C63.2646 18.8211 63.1238 19.2546 63.2449 19.6549L63.8692 21.7185C64.1438 22.626 63.1191 23.3705 62.3409 22.8289L60.5712 21.5975C60.2279 21.3586 59.7721 21.3586 59.4288 21.5975L57.6591 22.8289C56.8809 23.3705 55.8562 22.626 56.1308 21.7185L56.7551 19.6549C56.8762 19.2546 56.7354 18.8211 56.4021 18.5685L54.6841 17.2659C53.9285 16.6931 54.3199 15.4886 55.2678 15.4693L57.4234 15.4253C57.8415 15.4168 58.2102 15.1489 58.3476 14.7539L59.0554 12.7174Z" fill="#002C95"/>
<path d="M20.0554 7.71739C20.3667 6.82183 21.6333 6.82183 21.9446 7.71739L22.6524 9.75386C22.7898 10.1489 23.1585 10.4168 23.5766 10.4253L25.7322 10.4693C26.6801 10.4886 27.0715 11.6931 26.3159 12.2659L24.5979 13.5685C24.2646 13.8211 24.1238 14.2546 24.2449 14.6549L24.8692 16.7185C25.1438 17.626 24.1191 18.3705 23.3409 17.8289L21.5712 16.5975C21.2279 16.3586 20.7721 16.3586 20.4288 16.5975L18.6591 17.8289C17.8809 18.3705 16.8562 17.626 17.1308 16.7185L17.7551 14.6549C17.8762 14.2546 17.7354 13.8211 17.4021 13.5685L15.6841 12.2659C14.9285 11.6931 15.3199 10.4886 16.2678 10.4693L18.4234 10.4253C18.8415 10.4168 19.2102 10.1489 19.3476 9.75386L20.0554 7.71739Z" fill="#002C95"/>
<path d="M7.05544 12.7174C7.36673 11.8218 8.63327 11.8218 8.94456 12.7174L9.65244 14.7539C9.78977 15.1489 10.1585 15.4168 10.5766 15.4253L12.7322 15.4693C13.6801 15.4886 14.0715 16.6931 13.3159 17.2659L11.5979 18.5685C11.2646 18.8211 11.1238 19.2546 11.2449 19.6549L11.8692 21.7185C12.1438 22.626 11.1191 23.3705 10.3409 22.8289L8.57118 21.5975C8.22786 21.3586 7.77214 21.3586 7.42882 21.5975L5.65913 22.8289C4.88088 23.3705 3.85624 22.626 4.13079 21.7185L4.75511 19.6549C4.87623 19.2546 4.7354 18.8211 4.40211 18.5685L2.68405 17.2659C1.92852 16.6931 2.3199 15.4886 3.26782 15.4693L5.42337 15.4253C5.84154 15.4168 6.21023 15.1489 6.34756 14.7539L7.05544 12.7174Z" fill="#002C95"/>
</svg>
