<svg width="125" height="64" viewBox="0 0 125 64" fill="none" xmlns="http://www.w3.org/2000/svg">
<path fill-rule="evenodd" clip-rule="evenodd" d="M13.329 58.4582C12.729 59.0839 12.3418 59.6379 11.5602 60.1018C10.3475 60.8217 8.74374 60.9603 7.36452 60.9603C6.46557 60.9603 5.57252 60.794 4.73475 60.4692C1.63036 59.2652 0 56.3043 0 53.069C0 48.7504 2.93054 44.8877 7.48101 44.8877C9.03357 44.8877 10.7493 45.1204 12.0254 46.0762C12.396 46.3538 12.6994 46.6697 12.9882 47.0288C13.0921 47.1578 13.208 47.319 13.329 47.4638V45.4099H15.8352V60.4382H13.329V58.4582ZM76.6476 49.2503H74.2045V50.8071H74.1644C73.3634 49.5497 72.1219 48.8911 70.5398 48.8911C67.4759 48.8911 65.0328 51.4058 65.0328 54.8787C65.0328 58.4514 67.6361 60.6667 70.4597 60.6667C71.0404 60.6667 72.8828 60.567 74.1644 58.8106H74.2045V60.3075H76.6476V49.2503ZM70.9604 51.4058C72.8828 51.4058 74.1444 52.8428 74.1444 54.759C74.1444 56.7748 72.8628 58.152 70.9604 58.152C69.0179 58.152 67.6962 56.7548 67.6962 54.8787C67.6962 52.8828 69.0379 51.4058 70.9604 51.4058ZM53.5783 60.3075H56.2416V54.9985L60.2467 60.3075H63.6111L58.9451 54.4396L63.3706 49.2503H60.2067L56.2416 54.3198V49.2503H53.5783V60.3075ZM48.8323 49.2503L46.1689 56.3357L43.6255 49.2503H40.6017L44.667 59.2696L42.6243 63.9999H45.488L51.856 49.2503H48.8323ZM39.0998 45.5378L34.8545 45.6178C33.4326 45.6377 27.7854 45.7974 27.7854 53.761C27.7854 56.0563 28.2861 60.6667 33.5727 60.6667C37.1573 60.6667 39.5604 58.2119 39.5604 54.7789C39.5604 51.5056 37.3376 49.41 34.2937 49.41C32.4314 49.41 31.0095 50.1684 30.1083 51.4457H30.0684C30.5489 48.3521 33.3125 47.9928 34.7942 47.9729L39.0998 47.893V45.5378ZM33.733 51.765C35.5753 51.765 36.897 52.9427 36.897 54.9585C36.897 56.8546 35.6553 58.152 33.733 58.152C31.8505 58.152 30.5689 56.9344 30.5689 54.9585C30.5689 53.0026 31.9307 51.765 33.733 51.765ZM21.0968 52.5236C21.1569 51.8849 21.6175 51.4058 22.3585 51.4058C22.7189 51.4058 23.4798 51.4857 23.4798 52.4836C23.4798 53.0026 23.2194 53.5614 22.3183 53.5614H21.8177V55.8367H22.4385C22.6988 55.8367 23.6199 55.8766 23.6199 56.9943C23.6199 58.132 22.4786 58.152 22.3383 58.152C21.2569 58.152 20.8164 57.3735 20.8164 56.5752H18.1531C18.113 58.2718 18.914 60.6667 22.2382 60.6667C24.7213 60.6667 26.2835 59.1698 26.2835 57.0541C26.2835 55.7968 25.6225 54.6791 24.2808 54.3397C25.3422 53.9805 26.0831 53.0823 26.0831 51.9846C26.0831 50.4278 24.9416 48.8911 22.2984 48.8911C19.8753 48.8911 18.5536 50.6074 18.4335 52.5236H21.0968ZM8.09225 47.5015C4.90725 47.5015 2.82629 49.9923 2.82629 53.069C2.82629 56.1223 5.01991 58.3465 8.09225 58.3465C11.2776 58.3465 13.2417 55.9688 13.2417 52.895C13.2417 49.8648 11.2141 47.5015 8.09225 47.5015Z" fill="#4478DE"/>
<path fill-rule="evenodd" clip-rule="evenodd" d="M98.0149 49.7693C96.7733 46.9352 94.21 45.2786 91.1462 45.2786C85.8995 45.2786 83.3962 49.6295 83.3962 52.9228C83.3962 56.3159 85.9194 60.6668 91.1061 60.6668C94.3302 60.6668 96.7132 58.8905 97.9347 56.2958H94.7507C93.8295 57.4934 92.5078 58.0123 91.1861 58.0123C88.3425 58.0123 86.1398 55.6971 86.1398 52.9228C86.1398 50.3282 88.2024 47.9331 91.1661 47.9331C92.9284 47.9331 94.15 48.8311 94.8909 49.7693H98.0149ZM99.8974 49.2504V60.3076H102.561V55.677H106.686V60.3076H109.349V49.2504H106.686V53.322H102.561V49.2504H99.8974ZM122.967 49.2504H120.524V50.8072H120.484C119.682 49.5497 118.441 48.8912 116.859 48.8912C113.795 48.8912 111.352 51.4059 111.352 54.8788C111.352 58.4515 113.955 60.6668 116.779 60.6668C117.36 60.6668 119.202 60.5671 120.484 58.8107H120.524V60.3076H122.967V49.2504ZM117.28 51.4059C119.202 51.4059 120.464 52.8429 120.464 54.7591C120.464 56.7749 119.182 58.1521 117.28 58.1521C115.337 58.1521 114.015 56.7549 114.015 54.8788C114.015 52.8829 115.357 51.4059 117.28 51.4059Z" fill="#002C95"/>
<path fill-rule="evenodd" clip-rule="evenodd" d="M0.161804 36.454C10.7048 30.9815 20.0102 19.2134 31.2292 17.1807C41.6193 15.2981 43.9914 22.7807 49.4921 23.0786C57.7197 23.524 59.3877 19.5159 65.0809 14.3435C61.3402 19.5079 57.5449 26.4617 49.8163 26.9348C37.8683 27.6664 40.6584 14.417 24.1874 24.0926C15.8153 29.0105 10.0039 33.4234 0.161804 36.454Z" fill="#4478DE"/>
<path fill-rule="evenodd" clip-rule="evenodd" d="M88.8131 17.351C84.6785 14.344 79.1009 12.2983 73.7388 13.2156C67.9819 14.2001 66.8077 21.9549 70.083 27.0404C75.5944 35.5976 91.6737 29.6955 98.7024 25.1629C93.7399 32.1289 74.9225 39.9719 67.3493 29.8186C61.905 22.5194 64.4631 10.4657 73.5081 10.4194C79.3786 10.3895 84.9324 13.3313 88.8131 17.351Z" fill="#4478DE"/>
<path fill-rule="evenodd" clip-rule="evenodd" d="M2.67984 41.1643C42.9578 15.7977 60.9681 41.2322 86.9417 37.308C103.411 34.8197 106.557 33.4377 122.967 38.5496C108.208 35.7874 106.989 36.5916 92.7433 39.8818C64.5617 46.3905 43.6216 21.3328 2.67984 41.1643Z" fill="#002C95"/>
<path fill-rule="evenodd" clip-rule="evenodd" d="M101.932 7.04435C108.365 6.16495 114.094 9.1906 114.729 13.8021C114.929 15.2583 114.597 16.6985 113.847 18.0153C112.596 18.0504 111.292 18.2425 109.95 18.6251C107.509 19.3211 104.598 21.3486 101.51 23.8202C94.4151 23.3695 85.2021 18.3098 94.001 10.8255C87.9621 16.9657 98.0014 20.413 102.587 19.7861C107.446 19.1219 110.996 15.7595 110.517 12.2758C110.063 8.97958 106.163 6.75609 101.627 7.09007C101.729 7.07323 101.83 7.05839 101.932 7.04435Z" fill="#4478DE"/>
<path fill-rule="evenodd" clip-rule="evenodd" d="M77.3629 1.80322L77.8719 2.92578L78.9709 2.46707L78.5344 3.61959L79.637 4.06973L78.5107 4.5771L78.9709 5.6724L77.8145 5.2374L77.3629 6.33627L76.8538 5.21372L75.7548 5.6724L76.1913 4.51988L75.0888 4.06973L76.2151 3.56239L75.7548 2.46707L76.9112 2.90207L77.3629 1.80322Z" fill="#4478DE"/>
<path fill-rule="evenodd" clip-rule="evenodd" d="M121.479 3.30615L121.806 4.02587L122.51 3.73177L122.231 4.4707L122.937 4.75929L122.215 5.08458L122.51 5.78681L121.769 5.50792L121.479 6.21243L121.153 5.49271L120.448 5.78681L120.728 5.04788L120.021 4.75929L120.744 4.434L120.448 3.73177L121.19 4.01066L121.479 3.30615Z" fill="#4478DE"/>
<path fill-rule="evenodd" clip-rule="evenodd" d="M44.517 6.91284L44.8289 7.60078L45.5024 7.31967L45.2349 8.02598L45.9106 8.30187L45.2204 8.61279L45.5024 9.28406L44.7937 9.01746L44.517 9.6909L44.205 9.00294L43.5315 9.28406L43.7989 8.57775L43.1233 8.30187L43.8135 7.99094L43.5315 7.31967L44.2402 7.58626L44.517 6.91284Z" fill="#4478DE"/>
<path fill-rule="evenodd" clip-rule="evenodd" d="M83.4905 35.7796C92.2485 34.0815 98.1383 28.9855 102.681 25.0452C119.924 10.0905 128.674 30.0485 123.541 36.9652C122.908 36.5876 114.001 34.4064 112.04 34.0015C101.761 31.8782 83.2971 36.9239 83.4905 35.7796Z" fill="#002C95"/>
<path fill-rule="evenodd" clip-rule="evenodd" d="M9.19113 1.55906C10.5599 1.92461 11.6922 2.73042 12.4763 3.78248C11.8501 3.1949 11.0734 2.74875 10.1845 2.51136C7.31545 1.74516 4.36649 3.44211 3.59774 6.30156C2.82899 9.16103 4.53157 12.1002 7.40059 12.8664C8.2895 13.1038 9.18596 13.1045 10.023 12.9077C8.81621 13.428 7.43138 13.5616 6.0626 13.1961C2.83841 12.335 0.925026 9.03196 1.78894 5.8185C2.65286 2.60504 5.96695 0.698019 9.19113 1.55906Z" fill="#002C95"/>
<path fill-rule="evenodd" clip-rule="evenodd" d="M9.96402 16.8313L10.4731 17.9539L11.5721 17.4951L11.1356 18.6477L12.2381 19.0978L11.1118 19.6052L11.5721 20.7005L10.4157 20.2655L9.96402 21.3643L9.45498 20.2418L8.356 20.7005L8.79245 19.548L7.68994 19.0978L8.81625 18.5905L8.356 17.4951L9.51237 17.9301L9.96402 16.8313Z" fill="#4478DE"/>
</svg>
